<svg width="1024" height="1024" xmlns="http://www.w3.org/2000/svg" xmlns:svg="http://www.w3.org/2000/svg" class="icon">
 <g>
  <title>Layer 1</title>
  <rect id="svg_2" height="725.333327" width="765.6296" y="284.44446" x="203.851934" stroke-linecap="null" stroke-linejoin="null" stroke-dasharray="null" stroke-width="null" fill="#000000"/>
  <rect id="svg_3" height="49.777778" width="56.888889" y="734.814815" x="504.888889" stroke-linecap="null" stroke-linejoin="null" stroke-dasharray="null" stroke-width="null" fill="#000000"/>
  <path id="svg_1" fill="#FFCA28" d="m-0.00004,2.370328l1024.000021,0l0,1019.259269l-1024.000021,0l0,-1019.259269m269.084446,851.647749c22.75556,48.131679 67.697788,87.769544 144.49779,87.769544c85.333335,0 143.928883,-45.300408 143.928883,-144.395063l0,-327.295472l-96.711109,0l0,325.030447c0,48.697952 -19.911107,61.155556 -51.200001,61.155556c-32.995561,0 -46.648894,-22.650197 -62.008895,-49.264198l-78.506668,46.999186m340.195567,-10.192593c28.444441,55.493 85.902228,97.962136 175.78667,97.962136c91.022229,0 159.288897,-46.999173 159.288897,-133.636211c0,-79.841976 -46.080001,-115.516051 -128.000003,-150.623879l-23.893334,-10.192593c-41.528894,-17.553901 -59.164455,-29.445259 -59.164455,-57.758025c0,-23.216457 17.63556,-41.336617 46.080001,-41.336617c27.306667,0 45.511121,11.891358 62.008895,41.336617l74.524442,-49.264198c-31.288881,-54.360494 -75.662215,-75.311926 -136.533336,-75.311926c-85.902215,0 -141.084443,54.360494 -141.084443,126.27489c0,78.143211 46.080001,114.949804 115.484442,144.395063l23.893334,10.192593c44.373334,19.25268 70.542228,31.144038 70.542228,63.986841c0,27.180247 -25.600001,46.999173 -65.422228,46.999173c-47.217774,0 -74.524442,-24.348976 -95.004442,-58.324285l-78.506668,45.300421z"/>
 </g>
</svg>