<?xml version="1.0" encoding="iso-8859-1"?>
<!-- Generator: Adobe Illustrator 21.0.0, SVG Export Plug-In . SVG Version: 6.00 Build 0)  -->
<svg version="1.1" id="Capa_1" xmlns="http://www.w3.org/2000/svg" xmlns:xlink="http://www.w3.org/1999/xlink" x="0px" y="0px"
	 viewBox="0 0 597.829 597.829" style="enable-background:new 0 0 597.829 597.829;" xml:space="preserve">
<g>
	<g>
		<g id="flat">
			<path style="fill:#4398D1;" d="M35.464,81.062c-16.79,0-30.398,13.608-30.398,30.398v314.114h587.697V111.46
				c0-16.79-13.608-30.398-30.398-30.398H35.464z"/>
			<path style="fill:#3E8CC7;" d="M592.763,111.46c0-16.79-13.608-30.398-30.398-30.398h-98.794L119.059,425.573h473.704V111.46z"/>
			<path style="fill:#87CED9;" d="M65.863,395.175V30.398C65.863,13.608,79.471,0,96.261,0h405.308
				c16.79,0,30.398,13.608,30.398,30.398v364.777"/>
			<path style="fill:#71C4D1;" d="M501.569,0h-12.666L93.727,395.175h438.239V30.398C531.967,13.608,518.359,0,501.569,0z"/>
			<polygon style="fill:#DADDDF;" points="376.936,577.564 349.578,486.37 248.251,486.37 220.893,577.564 187.455,577.564 
				187.455,597.829 410.374,597.829 410.374,577.564 			"/>
			<path style="fill:#DADDDF;" d="M5.066,425.573v30.398c0,16.79,13.608,30.398,30.398,30.398h526.9
				c16.79,0,30.398-13.608,30.398-30.398v-30.398H5.066z"/>
			<rect x="106.393" y="121.592" style="fill:#E34B87;" width="101.327" height="81.062"/>
			<rect x="106.393" y="283.716" style="fill:#E34B87;" width="101.327" height="81.062"/>
			<rect x="96.261" y="30.398" style="fill:#5EB3D1;" width="20.265" height="20.265"/>
			<rect x="136.791" y="30.398" style="fill:#5EB3D1;" width="20.265" height="20.265"/>
			<rect x="177.322" y="30.398" style="fill:#5EB3D1;" width="20.265" height="20.265"/>
			<rect x="96.261" y="70.929" style="fill:#5EB3D1;" width="405.308" height="20.265"/>
			<rect x="238.118" y="111.46" style="fill:#5EB3D1;" width="81.062" height="20.265"/>
			<rect x="238.118" y="151.99" style="fill:#5EB3D1;" width="162.123" height="20.265"/>
			<rect x="238.118" y="192.521" style="fill:#5EB3D1;" width="81.062" height="20.265"/>
			<rect x="96.261" y="233.052" style="fill:#5EB3D1;" width="405.308" height="20.265"/>
			<rect x="420.507" y="151.99" style="fill:#5EB3D1;" width="81.062" height="20.265"/>
			<rect x="339.445" y="192.521" style="fill:#5EB3D1;" width="141.858" height="20.265"/>
			<rect x="238.118" y="273.583" style="fill:#5EB3D1;" width="81.062" height="20.265"/>
			<rect x="238.118" y="314.114" style="fill:#5EB3D1;" width="162.123" height="20.265"/>
			<rect x="238.118" y="354.644" style="fill:#5EB3D1;" width="81.062" height="20.265"/>
			<rect x="420.507" y="314.114" style="fill:#5EB3D1;" width="81.062" height="20.265"/>
			<rect x="339.445" y="354.644" style="fill:#5EB3D1;" width="141.858" height="20.265"/>
			<polygon style="fill:#B8BDBF;" points="358.698,516.768 349.578,486.37 248.251,486.37 239.132,516.768 			"/>
		</g>
	</g>
</g>
<g>
</g>
<g>
</g>
<g>
</g>
<g>
</g>
<g>
</g>
<g>
</g>
<g>
</g>
<g>
</g>
<g>
</g>
<g>
</g>
<g>
</g>
<g>
</g>
<g>
</g>
<g>
</g>
<g>
</g>
</svg>
