<svg height="512pt" viewBox="0 0 512.00143 512" width="512pt" xmlns="http://www.w3.org/2000/svg"><path d="m440 488v16h-112v-24h-144v24h-120v-16c0-8.835938 7.164062-16 16-16h32l-22.359375-44.722656c-5.757813-11.511719-3.5-25.417969 5.601563-34.519532 5.605468-5.609374 13.214843-8.757812 21.144531-8.757812h11.613281l48-72-32-24 48-24h112l47.996094 16-31.996094 32 8 24h-24v-8c0-4.402344-1.761719-8.402344-4.722656-11.28125-3.183594-3.273438-7.742188-5.078125-12.691406-4.660156-8.425782.714844-14.585938 8.382812-14.585938 16.835937v7.105469h-8c-8.800781 0-16 7.199219-16 16v16c0 8.796875 7.199219 16 16 16h123.609375c7.929687 0 15.539063 3.148438 21.144531 8.757812 9.101563 9.101563 11.359375 23.007813 5.605469 34.519532l-22.363281 44.722656h32c8.839844 0 16.003906 7.164062 16.003906 16zm0 0" fill="#00973d"/><path d="m216 88h-80v-40c0-22.089844 17.90625-40 40-40 22.089844 0 40 17.910156 40 40zm0 0" fill="#a7d669"/><path d="m344 88h-80v-40c0-22.089844 17.90625-40 40-40 22.089844 0 40 17.910156 40 40zm0 0" fill="#a7d669"/><path d="m136 72-40 40h-6.964844c-27.082031 0-49.035156 21.953125-49.035156 49.035156 0 14.550782 6.460938 28.351563 17.640625 37.667969l30.359375 25.296875c0-39.765625 32.234375-72 72-72h24l64 24 56-24h48c0 13.253906 10.746094 24 24 24h104c13.253906 0 24-10.746094 24-24v-64c0-8.835938-7.164062-16-16-16h-48c-8.835938 0-16 7.164062-16 16 0-8.835938-7.164062-16-16-16h-48c-8.835938 0-16 7.164062-16 16h-80v-16h-48v16h-80zm0 0" fill="#00973d"/><path d="m88 224c0-39.765625 32.234375-72 72-72h24c0 24.882812 12.820312 48.011719 33.921875 61.199219l30.078125 18.800781h64l16 16h144c0 17.671875-14.328125 32-32 32h-88l-48-8h-112l-48 16-28.214844-16.125c-17.183594-9.816406-27.785156-28.085938-27.785156-47.875zm0 0" fill="#a7d669"/><path d="m408 128c0 8.835938-7.164062 16-16 16s-16-7.164062-16-16 7.164062-16 16-16 16 7.164062 16 16zm0 0" fill="#fdcf00"/><path d="m472 128c0 8.835938-7.164062 16-16 16s-16-7.164062-16-16 7.164062-16 16-16 16 7.164062 16 16zm0 0" fill="#fdcf00"/><path d="m184 152c0 24.882812 12.816406 48.011719 33.917969 61.199219l30.082031 18.800781h64l-.15625-.777344c-5.21875-26.082031-7.84375-52.621094-7.84375-79.222656l-56 24zm0 0" fill="#fa4c52"/><g fill="#efe1b4"><path d="m376 176 16 40 16-40zm0 0"/><path d="m456 176 16 40 16-40zm0 0"/><path d="m448 248-16-32-16 32zm0 0"/><path d="m368 248-16-32-16 32zm0 0"/></g><path d="m144 288 32 24-48 72v18.746094c0 28.976562 11.511719 56.765625 32 77.253906h96c-20.492188-20.488281-32-48.277344-32-77.253906 0-12.460938 1.363281-24.882813 4.066406-37.042969l11.933594-53.703125-24-40h-24.003906zm0 0" fill="#abcd00"/><path d="m64 288v-16c0-8.835938-7.164062-16-16-16s-16 7.164062-16 16v8h-8c-8.835938 0-16 7.164062-16 16v24c0 8.835938 7.164062 16 16 16h32l24 16h72l24-40h-72zm0 0" fill="#37803d"/><path d="m368 328v40c0 8.800781-7.199219 16-16 16h-88c-8.800781 0-16-7.199219-16-16v-16c0-8.800781 7.199219-16 16-16h8v-8c0-8.800781 7.199219-16 16-16 4.398438 0 8.398438 1.757812 11.277344 4.71875 2.960937 2.882812 4.722656 6.882812 4.722656 11.28125v8h24l-8-24h32c8.800781 0 16 7.199219 16 16zm0 0" fill="#37803d"/><path d="m499.121094 369.277344c3.199218 9.761718 4.878906 20 4.878906 30.242187v24.480469c0 35.359375-28.640625 64-64 64 0-8.800781-7.199219-16-16-16h-32l24-48h8c8.800781 0 16.800781-3.601562 22.640625-9.359375.078125-.082031.160156-.242187.238281-.320313 5.679688-5.761718 9.121094-13.679687 9.121094-22.320312-.71875-5.199219-1.039062-10.320312-.878906-15.441406v-1.4375c.398437-10.5625 2.640625-20.882813 6.480468-30.5625.558594-1.359375 1.117188-2.71875 1.675782-3.996094 6.480468-14.242188 16.5625-26.882812 29.601562-36.5625.320313-.320312.71875-.640625 1.121094-.878906l10-7.121094-2.960938 7.441406c-4.558593 11.441406-6.878906 23.441406-6.878906 35.601563 0 10.15625 1.679688 20.394531 4.960938 30.234375zm0 0" fill="#37803d"/><path d="m184 64c0 13.253906-10.746094 24-24 24-13.257812 0-24-10.746094-24-24s10.742188-24 24-24c13.253906 0 24 10.746094 24 24zm0 0" fill="#fff"/><path d="m176 72c0 8.835938-7.164062 16-16 16s-16-7.164062-16-16 7.164062-16 16-16 16 7.164062 16 16zm0 0" fill="#493c35"/><path d="m160 64c0 4.417969-3.582031 8-8 8s-8-3.582031-8-8 3.582031-8 8-8 8 3.582031 8 8zm0 0" fill="#fff"/><path d="m168 84c0 2.210938-1.792969 4-4 4-2.210938 0-4-1.789062-4-4s1.789062-4 4-4c2.207031 0 4 1.789062 4 4zm0 0" fill="#fff"/><path d="m312 64c0 13.253906-10.746094 24-24 24s-24-10.746094-24-24 10.746094-24 24-24 24 10.746094 24 24zm0 0" fill="#fff"/><path d="m456 392c0 8.640625-3.441406 16.558594-9.121094 22.320312l-22.878906-30.320312 31.117188-7.441406c-.160157 5.121094.160156 10.242187.882812 15.441406zm0 0" fill="#a7d669"/><path d="m432 344 29.597656.558594c-3.839844 9.679687-6.078125 20-6.476562 30.5625zm0 0" fill="#a7d669"/><path d="m492.878906 304c-13.039062 9.679688-23.121094 22.320312-29.601562 36.558594l-7.28125-36.558594zm0 0" fill="#a7d669"/><path d="m304 72c0 8.835938-7.164062 16-16 16s-16-7.164062-16-16 7.164062-16 16-16 16 7.164062 16 16zm0 0" fill="#493c35"/><path d="m288 64c0 4.417969-3.582031 8-8 8s-8-3.582031-8-8 3.582031-8 8-8 8 3.582031 8 8zm0 0" fill="#fff"/><path d="m296 84c0 2.210938-1.792969 4-4 4-2.210938 0-4-1.789062-4-4s1.789062-4 4-4c2.207031 0 4 1.789062 4 4zm0 0" fill="#fff"/><path d="m392 152c13.234375 0 24-10.765625 24-24s-10.765625-24-24-24-24 10.765625-24 24 10.765625 24 24 24zm0-32c4.410156 0 8 3.585938 8 8s-3.589844 8-8 8-8-3.585938-8-8 3.589844-8 8-8zm64 32c13.234375 0 24-10.765625 24-24s-10.765625-24-24-24-24 10.765625-24 24 10.765625 24 24 24zm0-32c4.410156 0 8 3.585938 8 8s-3.589844 8-8 8-8-3.585938-8-8 3.589844-8 8-8zm-143.804688 40h32.816407c3.101562 12.011719 13.023437 21.292969 25.367187 23.492188l14.191406 35.476562c1.21875 3.039062 4.160157 5.03125 7.429688 5.03125s6.210938-1.992188 7.429688-5.03125l13.988281-34.96875h37.164062l13.988281 34.96875c1.21875 3.039062 4.160157 5.03125 7.429688 5.03125s6.210938-1.992188 7.429688-5.03125l15.542968-38.863281c10.078125-5.394531 17.027344-15.898438 17.027344-28.105469v-64c0-13.234375-10.765625-24-24-24h-48c-6.140625 0-11.75 2.320312-16 6.125-4.25-3.804688-9.859375-6.125-16-6.125h-48c-2.808594 0-5.492188.519531-8 1.410156v-17.410156c0-26.46875-21.53125-48-48-48s-48 21.53125-48 48v16h-32v-16c0-26.46875-21.53125-48-48-48s-48 21.53125-48 48v20.6875l-35.3125 35.3125h-3.652344c-31.449218 0-57.035156 25.585938-57.035156 57.03125 0 16.976562 7.480469 32.945312 20.523438 43.820312l27.742187 23.121094c1.34375 21.0625 13.085937 40.308594 31.550781 50.847656l27.78125 15.878907 12.402344 9.300781h-45.785156l-34.214844-20.53125v-11.46875c0-13.234375-10.765625-24-24-24s-24 10.765625-24 24c-13.234375 0-24 10.765625-24 24v24c0 13.234375 10.765625 24 24 24h29.578125l21.984375 14.65625c1.3125.875 2.859375 1.34375 4.4375 1.34375h54.386719l-10.667969 16h-7.332031c-10.128907 0-19.648438 3.945312-26.800781 11.101562-11.554688 11.554688-14.410157 29.140626-7.101563 43.757813l16.570313 33.140625h-19.054688c-13.234375 0-24 10.765625-24 24v16c0 4.421875 3.582031 8 8 8h120c4.417969 0 8-3.578125 8-8v-16h128v16c0 4.421875 3.582031 8 8 8h112c4.417969 0 8-3.578125 8-8v-8.472656c35.941406-3.996094 64-34.53125 64-71.527344v-24.476562c0-11.039063-1.777344-22.054688-5.277344-32.734376-.003906-.015624-.007812-.023437-.011718-.039062-3.019532-9.054688-4.550782-18.382812-4.550782-27.710938 0-11.148437 2.125-22.125 6.3125-32.640624l2.960938-7.4375c1.3125-3.296876.296875-7.0625-2.492188-9.25-2.789062-2.195313-6.683594-2.289063-9.582031-.226563l-9.125 6.515625h-34.234375c-2.394531 0-4.664062 1.070312-6.183594 2.921875-1.519531 1.859375-2.128906 4.289063-1.664062 6.640625l6.144531 30.859375-22.144531-.421875c-3.046875-.0625-5.867188 1.625-7.265625 4.335938-1.394531 2.71875-1.128907 5.984374.691406 8.4375l16.796875 22.609374-20.234375 4.835938c-2.625.625-4.757813 2.539062-5.667969 5.078125-.914062 2.539063-.484375 5.367187 1.140625 7.523437l18.113281 24.007813c-3.179687 1.789063-6.691406 2.828125-10.359374 3.039063.546874-10.492188-3.179688-20.992188-10.949219-28.765626-7.15625-7.15625-16.675781-11.101562-26.804688-11.101562h-13.089843c.898437-2.515625 1.476562-5.179688 1.476562-8v-40c0-13.234375-10.765625-24-24-24h-12.6875l16-16h84.6875c22.054688 0 40-17.945312 40-40 0-4.421875-3.582031-8-8-8h-19.054688l-13.789062-27.578125c-2.710938-5.421875-11.601562-5.421875-14.3125 0l-13.789062 27.578125h-38.109376l-13.789062-27.578125c-2.710938-5.421875-11.601562-5.421875-14.3125 0l-13.703125 27.40625-11.722656-11.726563c-4.390625-22.40625-6.757813-45.269531-7.222657-68.101562zm-96.214843 41.996094c-.636719-.511719-1.222657-1.0625-1.835938-1.59375-1.296875-1.121094-2.558593-2.273438-3.753906-3.484375-.640625-.648438-1.257813-1.316407-1.863281-1.988281-1.101563-1.214844-2.144532-2.472657-3.144532-3.765626-.53125-.683593-1.074218-1.363281-1.574218-2.070312-1.085938-1.527344-2.082032-3.113281-3.027344-4.726562-.296875-.511719-.636719-1-.921875-1.519532-1.175781-2.148437-2.226563-4.367187-3.148437-6.640625-.230469-.570312-.402344-1.164062-.617188-1.742187-.648438-1.738282-1.242188-3.5-1.734375-5.300782-.234375-.84375-.421875-1.703124-.621094-2.5625-.195312-.851562-.332031-1.722656-.496093-2.589843l51.949218 19.480469c1.933594.71875 4.066406.671874 5.960938-.140626l45.023437-19.296874c.59375 20.078124 2.65625 40.164062 6.164063 59.945312h-52.050782l-28.128906-17.578125c-2.171875-1.355469-4.214844-2.855469-6.179687-4.425781zm176.019531-7.535156-4.183594-10.460938h8.367188zm80 0-4.183594-10.460938h8.367188zm-168-178.460938c17.644531 0 32 14.351562 32 32v32h-20.453125c2.757813-4.726562 4.453125-10.144531 4.453125-16 0-17.648438-14.355469-32-32-32-4.683594 0-9.105469 1.066406-13.117188 2.882812 5.027344-11.105468 16.15625-18.882812 29.117188-18.882812zm-32 48c0-8.820312 7.175781-16 16-16s16 7.179688 16 16-7.175781 16-16 16-16-7.179688-16-16zm-96-48c17.644531 0 32 14.351562 32 32v32h-20.449219c2.753907-4.726562 4.449219-10.144531 4.449219-16 0-17.648438-14.355469-32-32-32-4.683594 0-9.101562 1.070312-13.117188 2.886719 5.023438-11.109375 16.15625-18.886719 29.117188-18.886719zm-32 48c0-8.820312 7.175781-16 16-16s16 7.179688 16 16-7.175781 16-16 16-16-7.179688-16-16zm-96 97.03125c0-22.625 18.410156-41.03125 41.035156-41.03125h6.964844c2.121094 0 4.15625-.84375 5.65625-2.34375l26.851562-26.851562c.023438.058593.066407.105468.089844.164062.089844.21875.230469.390625.332032.59375.324218.640625.707031 1.230469 1.183593 1.753906.207031.230469.425781.425782.660157.632813.496093.4375 1.035156.792969 1.628906 1.097656.257812.132813.492187.277344.765625.382813.886719.339843 1.824219.570312 2.832031.570312h80c4.417969 0 8-3.578125 8-8v-8h32v8c0 4.421875 3.582031 8 8 8h80c4.417969 0 8-3.578125 8-8 0-4.414062 3.589844-8 8-8h48c4.410156 0 8 3.585938 8 8 0 4.421875 3.582031 8 8 8s8-3.578125 8-8c0-4.414062 3.589844-8 8-8h48c4.410156 0 8 3.585938 8 8v64c0 8.820312-7.175781 16-16 16h-104c-8.824219 0-16-7.179688-16-16 0-4.421875-3.582031-8-8-8h-48c-.101562 0-.195312.054688-.296875.058594-.96875.039062-1.9375.191406-2.855469.589844l-53.046875 22.734374-60.992187-22.875c-.8125-.304687-1.660156-.421874-2.507813-.453124-.101562-.003907-.199219-.054688-.300781-.054688h-24c-2.605469 0-5.171875.148438-7.714844.390625-.832031.082031-1.644531.226563-2.46875.332031-1.695312.214844-3.382812.449219-5.042968.769532-.957032.1875-1.894532.421874-2.839844.640624-1.5.347657-2.988282.71875-4.453125 1.148438-.964844.285156-1.917969.597656-2.867188.917969-1.410156.472656-2.804687.980469-4.179687 1.53125-.929688.371093-1.851563.75-2.765625 1.15625-1.367188.605469-2.707031 1.261719-4.035157 1.945312-.851562.4375-1.707031.859375-2.542968 1.328125-1.394532.78125-2.742188 1.625-4.085938 2.484375-.703125.453125-1.425781.871094-2.113281 1.34375-1.75 1.199219-3.441406 2.476563-5.085937 3.808594-.234376.1875-.488282.355469-.71875.546875-1.863282 1.539062-3.644532 3.171875-5.363282 4.871094-.523437.519531-1.003906 1.085937-1.515625 1.621094-1.160156 1.210937-2.304687 2.4375-3.390625 3.722656-.589844.703125-1.136718 1.4375-1.707031 2.160156-.933594 1.1875-1.847656 2.386719-2.714844 3.625-.554687.800781-1.085937 1.617188-1.613281 2.4375-.796875 1.234375-1.5625 2.488281-2.292969 3.769531-.492187.859375-.96875 1.722657-1.425781 2.601563-.6875 1.320312-1.328125 2.667968-1.941406 4.027344-.402344.882812-.804688 1.757812-1.171875 2.652343-.605469 1.476563-1.136719 2.984375-1.652344 4.5-.28125.824219-.589844 1.632813-.84375 2.472657-.582031 1.910156-1.066406 3.863281-1.503906 5.832031-.105469.472656-.25.929687-.347657 1.40625-.011718.058593-.03125.117187-.042968.175781l-18.796875-15.664062c-9.378907-7.820313-14.761719-19.3125-14.761719-31.523438zm34.421875 182.96875-21.984375-14.65625c-1.3125-.875-2.859375-1.34375-4.4375-1.34375h-32c-4.410156 0-8-3.585938-8-8v-24c0-4.414062 3.589844-8 8-8h8c4.417969 0 8-3.578125 8-8.003906v-8c0-4.414063 3.589844-8 8-8 4.414062 0 8.003906 3.585937 8.003906 8v16c0 2.8125 1.46875 5.414062 3.878906 6.859375l40 24c1.246094.75 2.667969 1.140625 4.117188 1.140625h57.050781l-16 24h-62.628906zm93.578125 152h-104v-8c0-4.414062 3.589844-8 8-8h32c2.773438 0 5.347656-1.4375 6.804688-3.796875 1.457031-2.359375 1.589843-5.304687.351562-7.78125l-22.359375-44.71875c-4.226563-8.445313-2.574219-18.609375 4.105469-25.289063 4.070312-4.078124 9.714844-6.414062 15.484375-6.414062h3.613281v10.742188c0 31.320312 12.195312 60.765624 34.34375 82.914062 1.5 1.5 3.535156 2.34375 5.65625 2.34375h16zm8-24h-20.613281c-17.6875-18.835938-27.386719-43.304688-27.386719-69.257812v-16.320313l17.769531-26.652344c2.097657-.480469 3.953125-1.765625 5.089844-3.652343l24-40c.433594-.722657.707031-1.503907.894531-2.304688.050782-.210938.058594-.417969.089844-.632812.105469-.699219.117188-1.402344.035156-2.105469-.027344-.21875-.035156-.433594-.078125-.652344-.164062-.816406-.417969-1.617187-.839843-2.367187-.023438-.039063-.054688-.066407-.078126-.105469-.058593-.101563-.152343-.1875-.21875-.289063-.449218-.691406-.996093-1.277344-1.617187-1.789062-.097656-.082032-.144531-.195313-.246094-.273438l-19.78125-14.84375 32.277344-10.757812h18.171875l20.03125 33.382812-11.242188 50.585938c-2.824218 12.710937-4.257812 25.757812-4.257812 38.773437 0 25.25 7.929688 49.28125 22.609375 69.257813h-54.609375zm312-48c0 28.679688-21.679688 52.398438-49.507812 55.625-.070313-.1875-.179688-.359375-.253907-.542969-.164062-.410156-.367187-.796875-.550781-1.195312-.425781-.902344-.894531-1.777344-1.421875-2.613281-.25-.398438-.5-.789063-.773437-1.171876-.621094-.867187-1.300782-1.679687-2.03125-2.457031-.230469-.246093-.433594-.515625-.675782-.753906-.988281-.96875-2.058594-1.855469-3.203125-2.644531-.273437-.1875-.574219-.335938-.855469-.511719-.910156-.574219-1.851562-1.09375-2.839843-1.542969-.425781-.195312-.859375-.363281-1.300781-.535156-.941407-.363281-1.910157-.65625-2.902344-.902344-.433594-.105468-.851563-.226562-1.292969-.308594-1.429687-.265624-2.886719-.445312-4.390625-.445312h-19.058594l16-32h3.058594c10.59375 0 20.625-4.140625 28.296875-11.703125.207031-.203125.4375-.46875.652344-.742187 1-1.042969 1.785156-2.226563 2.660156-3.359376.636719-.824218 1.378906-1.585937 1.945313-2.457031.855468-1.308593 1.488281-2.730469 2.179687-4.125.433594-.878906.980469-1.703125 1.351563-2.613281.636718-1.566406 1.027343-3.222656 1.457031-4.867188.214843-.820312.550781-1.597656.714843-2.433593.488282-2.507813.742188-5.082031.742188-7.699219 0-.367188-.023438-.734375-.074219-1.09375-.6875-4.960938-.949219-9.570312-.804687-14.34375l-.003906-1.140625c.359374-9.523437 2.347656-18.902344 5.914062-27.890625.523438-1.273438 1.046875-2.550781 1.53125-3.652344 1.339844-2.945312 2.902344-5.777344 4.566406-8.546875.464844-.773437.960938-1.53125 1.449219-2.292969 1.394531-2.160156 2.882813-4.253906 4.464844-6.28125.453125-.582031.875-1.1875 1.34375-1.757812 1.816406-2.207031 3.777343-4.292969 5.804687-6.3125-1.347656 6.695312-2.03125 13.496094-2.03125 20.351562 0 11.046876 1.804688 22.070313 5.367188 32.757813 2.96875 9.0625 4.472656 18.390625 4.472656 27.726563zm-23.597656-112c-.726563.820312-1.371094 1.703125-2.070313 2.542969-.570312.6875-1.132812 1.371093-1.683593 2.070312-.519532.660157-1.089844 1.285157-1.589844 1.957031l-1.308594-6.570312zm-21.828125 40.351562c-.214844.796876-.421875 1.59375-.621094 2.398438l-1.8125-2.445312zm-3.199219 34.289063c.148438 1.921875.355469 3.867187.621094 5.859375-.03125 1.457031-.210938 2.894531-.492188 4.292969-.101562.5-.28125.96875-.410156 1.457031-.199219.734375-.410156 1.464844-.679688 2.171875l-8.664062-11.484375zm-44.273438 11.773437c6.675782 6.679688 8.328126 16.84375 4.101563 25.289063l-22.359375 44.71875c-1.238281 2.476563-1.105469 5.421875.351562 7.78125 1.457032 2.359375 4.03125 3.796875 6.804688 3.796875h32c4.410156 0 8 3.585938 8 8v8h-96v-16c0-4.421875-3.582031-8-8-8h-68.472656c-17.71875-18.84375-27.527344-43.273438-27.527344-69.257812 0-11.851563 1.300781-23.726563 3.871094-35.304688l11.933594-53.703125c.445312-2 .109374-4.09375-.949219-5.851563l-16.726563-27.882812h65.296875l39.601563 5.65625-20.6875 20.6875c-.121094.117188-.191406.273438-.300782.398438-.175781.199218-.375.363281-.53125.578124-.105468.148438-.164062.320313-.261718.472657-.148438.234375-.277344.472656-.398438.722656-.1875.382813-.332031.769531-.453125 1.171875-.078125.253906-.160156.503906-.210937.765625-.089844.445313-.117188.898437-.128906 1.351563-.007813.230468-.039063.453124-.027344.679687.042968.691406.15625 1.375.378906 2.046875l4.492188 13.46875h-4.902344c0-6.492188-2.535156-12.535156-6.988282-16.859375-1.191406-1.222656-2.5-2.277344-3.886718-3.199219-.449219-.296875-.945313-.5-1.410156-.765625-.96875-.550781-1.9375-1.085937-2.972657-1.492187-.652343-.261719-1.332031-.417969-2.007812-.617188-.898438-.261718-1.792969-.519531-2.726563-.675781-.757812-.128906-1.523437-.171875-2.296875-.226563-.574219-.039062-1.128906-.164062-1.710937-.164062-.382813 0-.738282.09375-1.113282.109375-.328124.015625-.644531-.046875-.972656-.019531-.484375.042968-.933594.191406-1.410156.261718-.75.109376-1.488281.230469-2.210938.40625-.640624.164063-1.257812.371094-1.878906.585938-.9375.316406-1.851562.65625-2.734375 1.078125-.175781.089844-.335937.1875-.507812.277344-7.78125 3.972656-13.171875 11.980469-13.171875 21.300781-13.234375 0-24 10.765625-24 24v16c0 13.234375 10.765625 24 24 24h65.050781l-7.707031 11.5625c-.910156 1.367188-1.34375 2.90625-1.34375 4.429688 0 2.585937 1.25 5.125 3.5625 6.664062 3.667968 2.445312 8.644531 1.453125 11.09375-2.21875l13.625-20.4375h39.332031c5.773437 0 11.417969 2.335938 15.492187 6.414062zm-43.101562-70.414062v40c0 4.414062-3.589844 8-8 8h-88c-4.410156 0-8-3.585938-8-8v-16c0-4.414062 3.589844-8 8-8h8c4.417969 0 8-3.578125 8-8v-7.101562c0-3.382813 1.808594-6.433594 4.378906-7.925782.03125-.015625.058594-.042968.089844-.0625.542969-.300781 1.160156-.398437 1.757812-.550781.457032-.109375.898438-.257813 1.382813-.28125.847656-.023437 1.65625.121094 2.445313.332031.246093.070313.515624.058594.753906.152344 1.046875.398438 2.027344 1.007812 2.890625 1.890625 1.484375 1.4375 2.300781 3.414063 2.300781 5.546875v8c0 4.421875 3.582031 8 8 8h24c2.570312 0 4.984375-1.234375 6.488281-3.320312 1.503907-2.085938 1.914063-4.773438 1.101563-7.210938l-4.492188-13.46875h20.902344c4.410156 0 8 3.585938 8 8zm72-94.109375 3.054688 6.109375h-6.109376zm-80 0 3.054688 6.109375h-6.109376zm-24 22.109375h134.628906c-3.300781 9.3125-12.203125 16-22.632812 16h-87.335938l-47.34375-7.890625c-.4375-.070313-.875-.109375-1.316406-.109375h-112.003906c-.859375 0-1.710938.140625-2.53125.414062l-44.601563 14.867188-25.109375-14.351562c-14.652344-8.367188-23.753906-24.046876-23.753906-40.929688 0-35.289062 28.710938-64 64-64h16.386719c.042969.417969.148437.820312.195312 1.234375.148438 1.300781.390625 2.570313.601563 3.855469.316406 1.925781.652344 3.84375 1.101562 5.730468.3125 1.3125.695313 2.59375 1.074219 3.882813.527344 1.800781 1.09375 3.582031 1.746094 5.332031.472656 1.277344.988281 2.535156 1.527343 3.785156.730469 1.695313 1.523438 3.355469 2.371094 4.996094.625 1.210938 1.257813 2.40625 1.945313 3.582032.9375 1.605468 1.957031 3.15625 3.003906 4.695312.753906 1.105469 1.492187 2.214844 2.304687 3.28125 1.167969 1.539062 2.4375 3 3.722657 4.457031.839843.953125 1.644531 1.933594 2.53125 2.851563 1.488281 1.535156 3.097656 2.960937 4.71875 4.378906.820312.722656 1.585937 1.496094 2.441406 2.1875 2.535156 2.046875 5.191406 3.976562 8.007813 5.734375l30.082031 18.796875c1.269531.796875 2.738281 1.21875 4.238281 1.21875h60.683594l13.65625 13.65625c1.503906 1.5 3.539062 2.34375 5.660156 2.34375zm0 0"/><path d="m128 104c0 13.253906-10.746094 24-24 24s-24-10.746094-24-24 10.746094-24 24-24 24 10.746094 24 24zm0 0" fill="#fa4c52"/><path d="m416 492c0-6.628906 5.371094-12 12-12h12c13.253906 0 24 10.746094 24 24h-36c-6.628906 0-12-5.375-12-12zm0 0" fill="#efe1b4"/><path d="m80 492c0-6.628906-5.375-12-12-12h-12c-13.253906 0-24 10.746094-24 24h36c6.625 0 12-5.375 12-12zm0 0" fill="#efe1b4"/></svg>