<?xml version="1.0"?>
<svg xmlns="http://www.w3.org/2000/svg" height="512px" viewBox="0 -3 402.77333 402" width="512px" class=""><g><path d="m307.199219 160.8125c0 84.832031-68.769531 153.601562-153.597657 153.601562-84.832031 0-153.601562-68.769531-153.601562-153.601562s68.769531-153.597656 153.601562-153.597656c84.828126 0 153.597657 68.765625 153.597657 153.597656zm0 0" fill="#d9be6f" data-original="#D9BE6F"/><path d="m218.453125 136.921875-47.785156 252.585937h109.226562v-252.585937zm0 0" fill="#d9be6f" data-original="#D9BE6F"/><path d="m279.894531 396.332031h-109.226562c-2.035157 0-3.960938-.90625-5.257813-2.46875-1.296875-1.566406-1.828125-3.625-1.449218-5.625l47.785156-252.589843c.609375-3.222657 3.425781-5.554688 6.707031-5.554688h61.441406c3.769531 0 6.824219 3.054688 6.824219 6.828125v252.585937c0 3.769532-3.054688 6.824219-6.824219 6.824219zm-100.988281-13.652343h94.160156v-238.933594h-48.957031zm0 0" fill="#4c241d" data-original="#4C241D" class="active-path" data-old_color="#4c241d" style="fill:#000000"/><path d="m395.945312 205.1875c0-11.3125-9.167968-20.480469-20.480468-20.480469 11.3125 0 20.480468-9.171875 20.480468-20.480469 0-11.308593-9.167968-20.480468-20.480468-20.480468v-105.8125c0-16.964844-13.753906-30.71875-30.71875-30.71875s-30.71875 13.753906-30.71875 30.71875v34.269531l-27.308594 1.578125v-35.847656c0-16.964844-13.753906-30.71875-30.71875-30.71875s-30.71875 13.753906-30.71875 30.71875v39.398437l-116.054688 6.707031v-17.828124c0-8.925782-6.421874-17.0625-15.308593-17.949219-10.214844-1.023438-18.824219 6.972656-18.824219 16.976562 0-10.003906-8.609375-18-18.828125-16.976562-8.882813.890625-15.304687 9.023437-15.304687 17.949219v72.925781c0 18.5625 14.476562 33.902343 33.007812 34.972656l205.925781 11.902344v203.496093h95.570313c11.3125 0 20.480468-9.171874 20.480468-20.480468 0-11.3125-9.167968-20.480469-20.480468-20.480469 11.3125 0 20.480468-9.171875 20.480468-20.480469s-9.167968-20.480468-20.480468-20.480468c11.3125 0 20.480468-9.167969 20.480468-20.480469 0-11.308594-9.167968-20.480469-20.480468-20.480469 11.3125 0 20.480468-9.167969 20.480468-20.476562 0-11.3125-9.167968-20.480469-20.480468-20.480469 11.3125 0 20.480468-9.171875 20.480468-20.480469zm0 0" fill="#a9ba5a" data-original="#A9BA5A" class=""/><path d="m375.464844 396.332031h-95.570313c-3.769531 0-6.828125-3.054687-6.828125-6.824219v-197.054687l-199.492187-11.527344c-22.113281-1.28125-39.441407-19.632812-39.441407-41.785156v-72.929687c0-12.667969 9.421876-23.539063 21.453126-24.746094 6.769531-.671875 13.476562 1.539062 18.46875 6.054687.359374.324219.703124.65625 1.035156.996094.335937-.339844.679687-.671875 1.039062-.996094 4.992188-4.519531 11.722656-6.734375 18.464844-6.054687 12.035156 1.207031 21.460938 12.078125 21.460938 24.746094v10.59375l102.398437-5.914063v-32.957031c0-20.703125 16.84375-37.546875 37.546875-37.546875s37.546875 16.84375 37.546875 37.546875v28.613281l13.652344-.785156v-27.828125c0-20.703125 16.84375-37.546875 37.546875-37.546875s37.546875 16.84375 37.546875 37.546875v99.851562c11.765625 3.039063 20.480469 13.742188 20.480469 26.441406 0 8.144532-3.585938 15.472657-9.265626 20.480469 5.679688 5.007813 9.265626 12.332031 9.265626 20.480469 0 8.144531-3.585938 15.472656-9.265626 20.480469 5.679688 5.007812 9.265626 12.332031 9.265626 20.480469 0 8.144531-3.585938 15.472656-9.265626 20.476562 5.679688 5.007812 9.265626 12.335938 9.265626 20.480469 0 8.148437-3.585938 15.472656-9.265626 20.480469 5.679688 5.007812 9.265626 12.335937 9.265626 20.480468 0 8.144532-3.585938 15.472656-9.265626 20.480469 5.679688 5.007813 9.265626 12.332031 9.265626 20.480469 0 15.054687-12.25 27.304687-27.308594 27.304687zm-88.746094-13.652343h88.746094c7.53125 0 13.65625-6.125 13.65625-13.652344 0-7.53125-6.125-13.652344-13.65625-13.652344-3.769532 0-6.824219-3.058594-6.824219-6.828125s3.054687-6.828125 6.824219-6.828125c7.53125 0 13.65625-6.121094 13.65625-13.652344s-6.125-13.652344-13.65625-13.652344c-3.769532 0-6.824219-3.058593-6.824219-6.828124 0-3.769532 3.054687-6.824219 6.824219-6.824219 7.53125 0 13.65625-6.125 13.65625-13.65625 0-7.527344-6.125-13.652344-13.65625-13.652344-3.769532 0-6.824219-3.054687-6.824219-6.828125 0-3.769531 3.054687-6.824219 6.824219-6.824219 7.53125 0 13.65625-6.125 13.65625-13.652343 0-7.53125-6.125-13.65625-13.65625-13.65625-3.769532 0-6.824219-3.054688-6.824219-6.824219s3.054687-6.828125 6.824219-6.828125c7.53125 0 13.65625-6.125 13.65625-13.652344 0-7.53125-6.125-13.652344-13.65625-13.652344-3.769532 0-6.824219-3.058594-6.824219-6.828125s3.054687-6.828125 6.824219-6.828125c7.53125 0 13.65625-6.121094 13.65625-13.652344s-6.125-13.652343-13.65625-13.652343c-3.769532 0-6.824219-3.058594-6.824219-6.828125v-105.8125c0-13.175782-10.71875-23.894532-23.894531-23.894532-13.171875 0-23.894532 10.71875-23.894532 23.894532v34.269531c0 3.617187-2.820312 6.605469-6.433593 6.816406l-27.304688 1.578125c-1.859375.0625-3.71875-.5625-5.082031-1.855468-1.367188-1.289063-2.140625-3.082032-2.140625-4.960938v-35.847656c0-13.175782-10.71875-23.894532-23.890625-23.894532-13.175781 0-23.894531 10.71875-23.894531 23.894532v39.398437c0 3.617188-2.820313 6.609375-6.433594 6.816407l-116.054687 6.707031c-1.890626.09375-3.714844-.5625-5.082032-1.851563-1.367187-1.289062-2.136718-3.085937-2.136718-4.964844v-17.828124c0-5.742188-4.019532-10.644532-9.15625-11.15625-2.949219-.320313-5.777344.621093-7.949219 2.589843-2.175781 1.96875-3.371094 4.664063-3.371094 7.59375 0 3.773438-3.058594 6.828125-6.828125 6.828125s-6.828125-3.054687-6.828125-6.828125c0-2.929687-1.195313-5.625-3.371094-7.59375-2.171875-1.96875-4.988281-2.90625-7.953125-2.589843-5.132812.511718-9.15625 5.414062-9.15625 11.15625v72.925781c0 14.929687 11.675782 27.296875 26.578125 28.15625l205.921875 11.898437c3.613282.210938 6.433594 3.199219 6.433594 6.816406zm0 0" fill="#4c241d" data-original="#4C241D" class="active-path" data-old_color="#4c241d" style="fill:#000000"/><path d="m375.464844 37.933594c0 16.964844-13.753906 30.71875-30.71875 30.71875s-30.71875-13.753906-30.71875-30.71875 13.753906-30.71875 30.71875-30.71875 30.71875 13.753906 30.71875 30.71875zm0 0" fill="#fff" data-original="#FFF" class="" data-old_color="#fff" style="fill:#FFFFFF"/><path d="m344.746094 75.480469c-20.703125 0-37.546875-16.84375-37.546875-37.546875s16.84375-37.546875 37.546875-37.546875 37.546875 16.84375 37.546875 37.546875-16.84375 37.546875-37.546875 37.546875zm0-61.441407c-13.171875 0-23.894532 10.71875-23.894532 23.894532 0 13.171875 10.722657 23.894531 23.894532 23.894531 13.175781 0 23.894531-10.722656 23.894531-23.894531 0-13.175782-10.71875-23.894532-23.894531-23.894532zm0 0" fill="#4c241d" data-original="#4C241D" class="active-path" data-old_color="#4c241d" style="fill:#000000"/><path d="m286.71875 37.933594c0 16.964844-13.753906 30.71875-30.71875 30.71875s-30.71875-13.753906-30.71875-30.71875 13.753906-30.71875 30.71875-30.71875 30.71875 13.753906 30.71875 30.71875zm0 0" fill="#fff" data-original="#FFF" class="" data-old_color="#fff" style="fill:#FFFFFF"/><g fill="#4c241d"><path d="m256 75.480469c-20.703125 0-37.546875-16.84375-37.546875-37.546875s16.84375-37.546875 37.546875-37.546875 37.546875 16.84375 37.546875 37.546875-16.84375 37.546875-37.546875 37.546875zm0-61.441407c-13.171875 0-23.894531 10.71875-23.894531 23.894532 0 13.171875 10.722656 23.894531 23.894531 23.894531s23.894531-10.722656 23.894531-23.894531c0-13.175782-10.722656-23.894532-23.894531-23.894532zm0 0" data-original="#4C241D" class="active-path" data-old_color="#4C241D" style="fill:#000000"/><path d="m354.988281 37.933594c0 5.65625-4.585937 10.238281-10.242187 10.238281s-10.238282-4.582031-10.238282-10.238281 4.582032-10.242188 10.238282-10.242188 10.242187 4.585938 10.242187 10.242188zm0 0" data-original="#4C241D" class="active-path" data-old_color="#4C241D" style="fill:#000000"/><path d="m266.238281 37.933594c0 5.65625-4.582031 10.238281-10.238281 10.238281s-10.238281-4.582031-10.238281-10.238281 4.582031-10.242188 10.238281-10.242188 10.238281 4.585938 10.238281 10.242188zm0 0" data-original="#4C241D" class="active-path" data-old_color="#4C241D" style="fill:#000000"/><path d="m255.261719 143.746094h-214.300781c-3.769532 0-6.828126-3.054688-6.828126-6.824219 0-3.773437 3.058594-6.828125 6.828126-6.828125h214.300781c3.769531 0 6.828125 3.054688 6.828125 6.828125 0 3.769531-3.058594 6.824219-6.828125 6.824219zm0 0" data-original="#4C241D" class="active-path" data-old_color="#4C241D" style="fill:#000000"/></g></g> </svg>
