<?xml version="1.0"?>
<svg xmlns="http://www.w3.org/2000/svg" height="512px" viewBox="0 0 60 54" width="512px" class=""><g><g id="047---Crocodiles" fill="none"><g id="Icons" transform="translate(0 1)"><path id="Shape" d="m54.54 52h-49.08c-1.60615099-.0213706-3.08035547-.8933624-3.87264163-2.2906671s-.78366713-3.1100727.02264163-4.4993329l24.54-42.96c.7852191-1.38719615 2.2559855-2.24471663 3.85-2.24471663s3.0647809.85752048 3.85 2.24471663l24.54 42.96c.8063088 1.3892602.8149278 3.1020282.0226416 4.4993329-.7922861 1.3973047-2.2664906 2.2692965-3.8726416 2.2906671z" fill="#f57c00" data-original="#F57C00" class=""/><path id="Shape" d="m51.54 52h-46.08c-1.60615099-.0213706-3.08035547-.8933624-3.87264163-2.2906671s-.78366713-3.1100727.02264163-4.4993329l24.54-42.96c.5122694-.92728946 1.3492415-1.63248294 2.35-1.98 1.0007585.34751706 1.8377306 1.05271054 2.35 1.98l24.54 42.96c.8063088 1.3892602.8149278 3.1020282.0226416 4.4993329-.7922861 1.3973047-2.2664906 2.2692965-3.8726416 2.2906671z" fill="#ff9801" data-original="#FF9801" class=""/><path id="Shape" d="m46.5 43.07c-1.666.312-1.986 1.93-2.88 1.93-.984 0-1.311-2-3.46-2-.9983551.0222156-1.9248758.5240034-2.489 1.348-.42.49-.591.652-.971.652-.513 0-.6-.31-1.392-1.12-.5466003-.5845167-1.3149187-.9105878-2.1150836-.8976328-.8001649.0129551-1.5575248.3637277-2.0849164.9656328-.367.367-.714.915-1.11 1.03-.344-.1-.578-.442-1.122-1.047-.5394392-.594444-1.3041367-.9344314-2.1068528-.9367145s-1.5693352.3333487-2.1121472.9247145c-.408.342-.712 1.081-1.357 1.081-.37 0-.54-.15-.95-.63-.1938577-.2317494-.4044203-.4489966-.63-.65-.6376432-.5615633-1.4894842-.8152363-2.3304618-.693997-.8409776.1212394-1.5864789.6051928-2.0395382 1.323997-.43.49-.6.65-.97.65-.694 0-.979-.883-1.869-1.52-.8949372-.5780998-2.0333684-.6240661-2.972-.12-1.072.608-1.323 1.64-2.079 1.64s-1-1-2.03-1.61c3.075-5.64 3.96-7.283 4.07-7.43.3633986-.5098775.9539372-.8088844 1.58-.8 1.5997617.0362549 3.0960795-.7882468 3.92-2.16 2.105-3.135 5.311-2.928 9-2 3.5.836 10.641-4.641 13-7 1-1 5 0 4 2-.46.92-3.44 3.1-7.4 5.57-5.0172529 3.1357698-10.2276338 5.9513795-15.6 8.43 4.374.313 15.7.8 20 0 1.0381072-.185554 2.0868342-.3057902 3.14-.36 3.04-.14 4.16 1.44 3.36 3.43z" fill="#607d8b" data-original="#607D8B" class="active-path" data-old_color="#607d8b" style="fill:#23C361"/></g><g id="Layer_2" fill="#000" transform="translate(-1 -1)"><path id="Shape" d="m35.719 3.756c-.960109-1.703372-2.7636777-2.75712632-4.719-2.75712632s-3.758891 1.05375432-4.719 2.75712632l-24.542 42.962c-.98306303 1.6983683-.9901744 3.7910508-.01867676 5.4960611.97149765 1.7050103 2.77541746 2.7657856 4.73767676 2.7859389h49.084c1.9619968-.0207598 3.7654512-1.0816382 4.736822-2.7864259.9713709-1.7047878.9645855-3.7971224-.017822-5.4955741zm19.823 49.244h-49.084c-1.24932113-.0201973-2.39418672-.7015375-3.00775666-1.7899965-.61356993-1.0884591-.60376598-2.4206924.02575666-3.5000035l24.542-42.962c.6041156-1.07975946 1.7447304-1.74859807 2.982-1.74859807s2.3778844.66883861 2.982 1.74859807l24.542 42.962c.6288705 1.0793966.6383487 2.4112854.0249038 3.4995227-.613445 1.0882373-1.7578472 1.7696778-3.0069038 1.7904773z" data-original="#000" class="" style="fill:#000000" data-old_color="#000"/><path id="Shape" d="m55 45c-.9952545.0299607-1.9176176.5291568-2.487 1.346-.427.494-.6.654-.973.654-.9 0-1.232-1.676-2.98-1.961.684-2.255-.586-4.185-3.5-4.389l-.06-.678c-.0312607-.3572656-.2507458-.6707152-.5757772-.8222754-.3250315-.1515603-.7062293-.1182054-1 .0875-.2937708.2057054-.4554836.5525098-.4242228.9097754l.05.568c-.49.047-1.038.117-1.655.212l-.032-.389c-.0452874-.5506279-.5283721-.9602873-1.079-.9149999-.5506279.0452873-.9602873.528372-.915 1.0789999l.041.5c-.613.062-1.293.111-2.034.149l-.01-.518c-.0108913-.5444587-.4554324-.9801089-1-.98h-.019c-.2652321.0049915-.5176123.1151662-.7015957.3062764-.1839834.1911101-.2844916.4474933-.2794043.7127236l.011.544c-.6913333.016-1.4146667.0223333-2.17.019v-.349c-.003866-.5522847-.4547153-.9968659-1.007-.993-.5522847.003866-.996866.4547153-.993 1.007v.32c-2.253-.029-4.457-.107-6.232-.191 1.425-.707 2.9-1.486 4.381-2.3l.216.429c.1607695.3192168.4796268.5284158.8364614.5487937.3568347.0203779.6974349-.1511611.8935001-.45.1960651-.2988389.217808-.6795769.0570385-.9987937l-.25-.5c.5773333-.3226667 1.1503333-.648 1.719-.976l.322.585c.2670297.4838014.8756986.6595297 1.3595.3925s.6595297-.8756986.3925-1.3595l-.347-.628c.588-.3493333 1.1633333-.6963333 1.726-1.041l.563.881c.1873268.3118594.5292384.4973842.8928043.4844449s.6914235-.2223012.8561062-.5466886c.1646828-.3243874.1402073-.7126193-.0639105-1.0137563l-.551-.864c.5113333-.326.9953333-.639 1.452-.939l.526.753c.3195475.4391509.9311924.5429709 1.3777495.2338578s.5647577-.9181424.2662505-1.3718578l-.512-.733c.43-.3.826-.589 1.185-.859l.6.757c.3474905.4198823.9672185.4841748 1.3935009.1445661.4262824-.3396086.5021081-.9580314.1704991-1.3905661l-.621-.78c.4229638-.352266.7857149-.7710848 1.074-1.24 1.562-3.127-3.856-4.9-5.6-3.154-1.588 1.588-8.911 7.517-12.051 6.737-3.766-.942-7.6-1.3-10.074 2.415-.6343884 1.0847616-1.8066395 1.7407323-3.063 1.714-1.0985095.0002178-2.1094816.5994401-2.637 1.563l-3.988 7.316c-.15773151-.0253727-.31724082-.0380799-.477-.038-.55228475 0-1 .4477153-1 1s.44771525 1 1 1c1.02 0 1.266 2 3.46 2 1.857 0 2.423-1.538 3.077-1.907.2689898-.1243808.5817251-.1098263.838.039.6.4 1.2 1.868 3 1.868 1.689 0 2.351-1.311 2.883-1.774 1.357-1.126 1.513 1.774 4.042 1.774 2.218 0 2.431-2 3.46-2 .831 0 1.1 1.3 2.449 1.82.1670766.1177317.3666108.1806322.571.18.523 0 .713.029 1.011-.18 1.366-.52 1.594-1.82 2.449-1.82 1 0 1.3 2 3.46 2 2.2 0 2.445-2 3.46-2 .427 0 .607.232.971.652.5690377.818524 1.4925435 1.3186789 2.489 1.348.866683-.0011042 1.6869536-.3917792 2.234-1.064.553-.6.725-.936 1.226-.936.376 0 .546.16.973.654.5693824.8168432 1.4917455 1.3160393 2.487 1.346 2.2 0 2.445-2 3.46-2 .5522847 0 1-.4477153 1-1s-.4477153-1-1-1zm-13.84 0c-.9960731.0307439-1.9189802.5305747-2.489 1.348-.426.494-.595.652-.971.652-.574 0-.763-.49-1.392-1.12-.5500122-.5782653-1.3169533-.8999245-2.1149115-.8870052s-1.5540844.3592377-2.0850885.9550052c-.446.464-.735.933-1.11 1.03-.377-.1-.642-.55-1.122-1.047-.5389562-.5952894-1.3038306-.9358836-2.1068487-.9381676-.803018-.002284-1.5698175.3339537-2.1121513.9261676-.673.681-.798 1.081-1.357 1.081-.606 0-.8-.553-1.471-1.194-1.0598561-1.0476504-2.7513727-1.0914267-3.864-.1-.744.643-.937 1.3-1.585 1.3-.723 0-.929-.867-1.869-1.52-.891824-.5878433-2.0356858-.6340289-2.972-.12-1.086.608-1.311 1.634-2.079 1.634-.51 0-.669-.342-1.25-.962l4.014-7.359c.1581376-.3182078.4826642-.5195847.838-.52 1.9361944.0308628 3.746724-.9560087 4.77-2.6 1.486-2.229 3.635-2.657 7.926-1.585 4.944 1.241 13.863-7.176 13.94-7.255.7835184-.213496 1.6215572-.0613258 2.28.414.24.2.2.284.127.424-.89 1.713-13.619 9.561-22.512 13.534-.4170421.1878289-.6534913.6346707-.5742059 1.0851345.0792854.4504637.4540943.789719.9102059.8238655 6.747.592 16.082.393 15.471.393 1.637 0 4.382-.332 4.172-.313.755-.068 5.252-1.123 6.057.3.522.924-.691 2.4-1.316 3.275-.1633624.2182176-.420411.3461854-.693.345-.966 0-1.32-2-3.46-2z" data-original="#000" class="" style="fill:#000000" data-old_color="#000"/><circle id="Oval" cx="22" cy="36" r="1" data-original="#000" class="" style="fill:#000000" data-old_color="#000"/></g></g></g> </svg>
